<svg width="14" height="25" viewBox="0 0 14 25" fill="none" xmlns="http://www.w3.org/2000/svg">
<rect width="14" height="25" fill="#E5E5E5"/>
<g id="ui-kit">
<rect width="2066" height="2804" transform="translate(-1024 -114)" fill="white"/>
<rect id="Rectangle 137" x="-973.5" y="-33.5" width="1965" height="119" rx="5.5" fill="white" stroke="#CACACA" stroke-dasharray="10 5"/>
<g id="favicon">
<g id="Frame 18">
<g id="Vector">
<path d="M2.99498 14.8314L5.77475 8.42896H6.70732V10.2403L4.73458 14.8314H6.20517V14.0064C6.20517 13.8056 6.53993 13.7912 6.70732 13.8092V16.3379C6.24821 16.3379 6.18125 16.1824 6.20517 16.1047V15.3873H4.46557L0.161406 25H0L1.09397 21.6822C1.09397 21.6822 0.125538 21.3056 0.44835 20.4985C0.771162 19.6915 2.70803 15.3873 2.70803 15.3873H0.44835V14.8314H2.99498Z" fill="black"/>
<path d="M10.2403 14.8314L7.46055 8.42896H6.52798V10.2403L8.50072 14.8314H7.03013V14.0064C7.03013 13.8056 6.69536 13.7912 6.52798 13.8092V16.3379C6.98709 16.3379 7.05404 16.1824 7.03013 16.1047V15.3873H8.76973L13.0739 25H13.2353L12.1413 21.6822C12.1413 21.6822 13.1098 21.3056 12.7869 20.4985C12.4641 19.6915 10.5273 15.3873 10.5273 15.3873H12.7869V14.8314H10.2403Z" fill="black"/>
</g>
<g id="Vector_2">
<path fill-rule="evenodd" clip-rule="evenodd" d="M6.63551 7.49641C7.68541 7.49641 8.53652 6.6453 8.53652 5.59541C8.53652 4.54551 7.68541 3.6944 6.63551 3.6944C5.58562 3.6944 4.73451 4.54551 4.73451 5.59541C4.73451 6.6453 5.58562 7.49641 6.63551 7.49641ZM6.63551 8.53658C8.25988 8.53658 9.57669 7.21978 9.57669 5.59541C9.57669 3.97104 8.25988 2.65423 6.63551 2.65423C5.01115 2.65423 3.69434 3.97104 3.69434 5.59541C3.69434 7.21978 5.01115 8.53658 6.63551 8.53658Z" fill="black"/>
<path d="M6.09749 0H7.17353V2.83357H6.09749V0Z" fill="black"/>
</g>
</g>
</g>
<path id="favicon_2" d="M-23.18 16.2554H-24.78V8.13537H-26.58V6.65537H-24.78V5.49537C-24.78 4.85537 -24.6867 4.30204 -24.5 3.83537C-24.3 3.35537 -24.0333 2.9887 -23.7 2.73537C-23.3667 2.48204 -23.0133 2.30204 -22.64 2.19537C-22.2533 2.07537 -21.8333 2.01537 -21.38 2.01537C-20.5267 2.01537 -19.7267 2.16204 -18.98 2.45537V3.93537C-19.5933 3.64204 -20.2667 3.49537 -21 3.49537C-21.68 3.49537 -22.2133 3.64204 -22.6 3.93537C-22.9867 4.21537 -23.18 4.75537 -23.18 5.55537V6.65537H-19.58V8.13537H-23.18V16.2554ZM-10.2005 14.2554C-10.2005 14.7487 -9.9538 14.9954 -9.46047 14.9954C-9.24713 14.9954 -9.00047 14.9487 -8.72047 14.8554V16.1554C-9.12047 16.302 -9.52047 16.3754 -9.92047 16.3754C-10.8405 16.3754 -11.4271 15.9887 -11.6805 15.2154C-12.7071 16.0687 -13.9538 16.4954 -15.4205 16.4954C-16.3538 16.4954 -17.1538 16.2487 -17.8205 15.7554C-18.4738 15.2487 -18.8005 14.522 -18.8005 13.5754C-18.8005 12.442 -18.3805 11.622 -17.5405 11.1154C-16.6871 10.5954 -15.6605 10.3354 -14.4605 10.3354C-13.5805 10.3354 -12.6938 10.4354 -11.8005 10.6354V10.2954C-11.8005 9.56204 -12.0405 8.98204 -12.5205 8.55537C-13.0005 8.11537 -13.6738 7.89537 -14.5405 7.89537C-15.7538 7.89537 -16.9205 8.13537 -18.0405 8.61537V7.05537C-16.7871 6.6287 -15.5671 6.41537 -14.3805 6.41537C-13.0738 6.41537 -12.0538 6.7687 -11.3205 7.47537C-10.5738 8.1687 -10.2005 9.17537 -10.2005 10.4954V14.2554ZM-17.1605 13.4954C-17.1605 14.0287 -16.9605 14.4354 -16.5605 14.7154C-16.1471 14.982 -15.6538 15.1154 -15.0805 15.1154C-13.7605 15.1154 -12.6671 14.6487 -11.8005 13.7154V11.9554C-12.7071 11.7687 -13.5205 11.6754 -14.2405 11.6754C-15.0538 11.6754 -15.7471 11.822 -16.3205 12.1154C-16.8805 12.3954 -17.1605 12.8554 -17.1605 13.4954ZM-0.390781 6.65537H1.38922L-2.85078 16.2554H-4.53078L-8.77078 6.65537H-6.99078L-3.69078 14.4554L-0.390781 6.65537ZM4.79188 16.2554H3.19188V6.65537H4.79188V16.2554ZM4.73188 2.85537C4.93188 3.0287 5.03188 3.27537 5.03188 3.59537C5.03188 3.91537 4.93188 4.1687 4.73188 4.35537C4.53188 4.5287 4.28521 4.61537 3.99188 4.61537C3.69854 4.61537 3.45188 4.5287 3.25188 4.35537C3.05188 4.1687 2.95188 3.91537 2.95188 3.59537C2.95188 3.27537 3.05188 3.0287 3.25188 2.85537C3.45188 2.6687 3.69854 2.57537 3.99188 2.57537C4.28521 2.57537 4.53188 2.6687 4.73188 2.85537ZM7.14031 11.4954C7.14031 10.6554 7.29365 9.90204 7.60031 9.23537C7.90698 8.5687 8.30698 8.03537 8.80031 7.63537C9.30698 7.23537 9.86031 6.93537 10.4603 6.73537C11.0736 6.52204 11.7003 6.41537 12.3403 6.41537C13.527 6.41537 14.5136 6.67537 15.3003 7.19537V8.75537C14.567 8.18204 13.647 7.89537 12.5403 7.89537C11.5003 7.89537 10.607 8.19537 9.86031 8.79537C9.11365 9.39537 8.74031 10.282 8.74031 11.4554C8.74031 12.6154 9.10698 13.502 9.84031 14.1154C10.587 14.7154 11.4736 15.0154 12.5003 15.0154C13.567 15.0154 14.5336 14.7554 15.4003 14.2354V15.8354C14.4936 16.2754 13.4536 16.4954 12.2803 16.4954C10.8936 16.4954 9.68698 16.062 8.66031 15.1954C7.64698 14.3287 7.14031 13.0954 7.14031 11.4954ZM18.4064 15.1554C17.3931 14.2487 16.8864 13.0154 16.8864 11.4554C16.8864 9.89537 17.3931 8.6687 18.4064 7.77537C19.4197 6.8687 20.6197 6.41537 22.0064 6.41537C23.4064 6.41537 24.6064 6.8687 25.6064 7.77537C26.6197 8.6687 27.1264 9.89537 27.1264 11.4554C27.1264 13.0154 26.6197 14.2487 25.6064 15.1554C24.6064 16.0487 23.4064 16.4954 22.0064 16.4954C20.6197 16.4954 19.4197 16.0487 18.4064 15.1554ZM24.5264 14.0354C25.1931 13.3954 25.5264 12.5354 25.5264 11.4554C25.5264 10.3754 25.1931 9.52204 24.5264 8.89537C23.8597 8.25537 23.0197 7.93537 22.0064 7.93537C20.9931 7.93537 20.1531 8.25537 19.4864 8.89537C18.8197 9.52204 18.4864 10.3754 18.4864 11.4554C18.4864 12.5354 18.8197 13.3954 19.4864 14.0354C20.1531 14.662 20.9931 14.9754 22.0064 14.9754C23.0197 14.9754 23.8597 14.662 24.5264 14.0354ZM30.8614 8.07537C31.2081 7.6087 31.6881 7.21537 32.3014 6.89537C32.9281 6.57537 33.6014 6.41537 34.3214 6.41537C35.4814 6.41537 36.4347 6.78204 37.1814 7.51537C37.9414 8.23537 38.3214 9.17537 38.3214 10.3354V16.2554H36.7214V10.5354C36.7214 9.6687 36.4814 9.01537 36.0014 8.57537C35.5347 8.12204 34.9147 7.89537 34.1414 7.89537C32.9147 7.89537 31.8747 8.53537 31.0214 9.81537V16.2554H29.4214V6.65537H30.8614V8.07537Z" fill="#CACACA"/>
<rect id="Rectangle 144" x="-36.5" y="-9.5" width="87" height="71" rx="5.5" stroke="#CACACA" stroke-dasharray="10 5"/>
</g>
</svg>
